<?xml version="1.0" encoding="utf-8"?><!DOCTYPE svg PUBLIC "-//W3C//DTD SVG 1.1//EN" "http://www.w3.org/Graphics/SVG/1.1/DTD/svg11.dtd"><svg viewBox="0 0 128 128" xmlns="http://www.w3.org/2000/svg" xmlns:xlink="http://www.w3.org/1999/xlink"><desc>Created with https://github.com/mekramy/goavatar</desc><defs></defs><circle fill="#88d8b0" cx="64" cy="64" r="60"/><mask id="mask-9053920e-2c8e-48dc-a173-1e6391fc414b"><path fill="white" d="M0,0V64H4c0,33.14,26.86,60,60,60s60-26.86,60-60h4V0H0Z"/></mask><g mask="url(#mask-9053920e-2c8e-48dc-a173-1e6391fc414b)">
		<g>
			<path fill="#fbdad0" d="M99.6,116.1c-1.1-8.1-7.5-12.9-14.2-17-6.2-3.8-11.3-7.6-12.3-11.4-.1-.7-.1-5,.2-7.1,1.1-.9,2.2-2,3.5-3.4,1.4-1.6,2.7-3.7,3.9-6,1.2,.2,3.7-1.2,5.2-3.9,1.9-3.5,1.4-8.3,.4-9.4-.5-.5-1.4-.1-2.2,.3,.3-3.5,.4-7.2,.1-11.3-1-14.3-11.3-18.2-20.2-18.2s-19,3.9-20.2,18.2c-.3,4.1-.3,7.8,.1,11.3-.8-.5-1.7-.8-2.2-.3-1,1-1.6,5.9,.4,9.4,1.5,2.6,4,4.1,5.2,3.9,1.1,2.3,2.3,4.4,3.9,6,1.2,1.3,2.3,2.4,3.5,3.4,.2,1.9,.3,6.3,.3,6.3-.4,4.1-5.8,8-12.4,12.1s-13,8.9-14.2,17c-1.1,8.1-1.4,12-1.4,12H101c0,.1-.2-3.8-1.4-11.9Z" />
			<path fill="#84706d" d="M64,67.5s-1.4-.1-2.3-.6c0,0,.4,1.8,2.3,1.9,1.9-.2,2.3-1.9,2.3-1.9-.9,.5-2.3,.6-2.3,.6Z" />
			<path fill="#84706d" opacity="0.2" d="M43.9,58.2c-.8-.5-1.7-.8-2.2-.3-1,1-1.6,5.9,.4,9.4,1.5,2.6,4,4.1,5.2,3.9-1.69-4.35-2.93-8.68-3.4-13Z" />
			<path fill="#84706d" opacity="0.2" d="M84.1,58.2c-.16,4.14-1.55,8.52-3.4,13,1.2,.2,3.7-1.2,5.2-3.9,1.9-3.5,1.4-8.3,.4-9.4-.5-.5-1.4-.1-2.2,.3Z" />
			<path fill="#84706d" opacity="0.2" d="M73.05,86.64c-.03-1.59,.02-4.45,.25-6.05-3.7,3.2-6.9,4.1-9.5,4.1s-5.44-.89-9.09-4.01c0,0,0,0,0,0,.1,1.02,.18,2.68,.23,4.02,9.07,5.28,18.12,2.44,18.11,1.93Z" />
		</g><g>
			<path fill="#008d68" d="M99.9,115.8c-1.1-8.2-7.5-13-14.3-17.1-3.1-1.8-5.8-3.8-8.1-5.6-.2,.3-.4,.6-.7,.9l-12.7,3-13.7-3c-.1-.2-.3-.3-.4-.5-2.1,1.7-4.7,3.5-7.6,5.3-6.6,4.1-13.1,9-14.3,17.1-1.1,8.2-1.4,12.1-1.4,12.1H101.3c0-.1-.2-4-1.4-12.2Z" />
			<polygon fill="#02140f" points="66.3 102.2 66.3 102.2 67.6 100 66 95.5 64.1 96.1 62.2 95.5 60.6 100 61.9 102.2 56.8 128 71.4 128 66.3 102.2" />
			<polygon fill="#044432" points="52.5 90.2 49.4 94.1 59 101.9 64.1 96.1 52.5 90.2" />
			<polygon fill="#044432" points="75.7 90.2 78.8 94.1 69.2 101.9 64.1 96.1 75.7 90.2" />
		</g>
			<g>
				<path d="M56.3,58.2c0.9,0.8,1.1,2.5,0.5,3.6c-0.7,1.2-2,1.4-2.9,0.6c-0.9-0.8-1.1-2.5-0.5-3.6C54,57.7,55.3,57.4,56.3,58.2z"/>
				<path d="M71.9,58.2c-0.9,0.8-1.1,2.5-0.5,3.6c0.7,1.2,2,1.4,2.9,0.6c0.9-0.8,1.1-2.5,0.5-3.6C74.1,57.7,72.8,57.4,71.9,58.2z"/>
			</g>
			<g>
				<path fill="#202123" d="M57.69,55.11h-7c-.55,0-1-.45-1-1h0c0-.55,8-1,8-1,.55,0,1,.45,1,1h0c0,.55-.45,1-1,1Z" />
				<path fill="#202123" d="M70.42,55.11h7c.55,0,1-.45,1-1h0c0-.55-8-1-8-1-.55,0-1,.45-1,1h0c0,.55,.45,1,1,1Z" />
			</g>
			<g>
				<path fill="#852325" d="M68.7,71.4h-9.4c-0.2,0-0.3,0.4-0.2,0.7c0.8,1.6,2.7,2.7,5,2.7c2.1,0,4.1-1.1,4.9-2.6C69.1,71.9,69,71.4,68.7,71.4z"/>
				<path fill="#D02D2F" d="M68,73.4c-0.7-1-2.2-1.6-4-1.6c-1.7,0-3.3,0.7-4,1.6c1,0.9,2.4,1.5,4,1.5C65.5,74.8,67,74.3,68,73.4z"/>
				<path fill="white" d="M68.7,71.4h-9.4c0.3,0.4,0.7,0.9,1.3,1c1,0.2,3.4,0.2,3.4,0.2l0,0l0,0c0,0,2.3,0,3.4-0.2C68,72.3,68.4,71.8,68.7,71.4z"/>
			</g><path fill="#02140f" d="M81.2,55.86c-1.09-1.65-3.26-2.57-6.45-2.73h0s-.03,0-.03,0c-.33-.01-.66-.03-1.01-.03s-.68,.01-1,.03h-17.43c-.33-.01-.67-.03-1.02-.03-3.71,0-6.2,.92-7.42,2.74-1.06,1.58-1.08,3.74-.07,6.25,1.77,4.39,3.46,5.66,7.49,5.66s5.63-1.21,7.48-5.65c.67-1.61,.91-3.07,.72-4.34,.99-.41,2.09-.41,3.08,0-.2,1.26,.02,2.72,.67,4.33,1.77,4.39,3.45,5.66,7.49,5.66s5.63-1.21,7.48-5.65c1.05-2.51,1.05-4.66,0-6.24Zm-20.48,5.61c-1.69,4.03-2.9,4.96-6.46,4.96s-4.87-1.02-6.46-4.96c-.61-1.5-1.11-3.62-.04-5.21,.9-1.34,2.75-2.08,5.52-2.22h2.01c2.79,.15,4.66,.89,5.54,2.23,1.04,1.59,.52,3.7-.11,5.2Zm5.15-4.86c-1.21-.41-2.52-.41-3.73,0-.11-.26-.24-.51-.4-.75-.43-.66-1.04-1.19-1.8-1.62h8.12c-.76,.42-1.36,.95-1.79,1.6-.16,.24-.3,.5-.41,.76Zm14.29,4.86c-1.69,4.03-2.9,4.96-6.46,4.96s-4.87-1.02-6.46-4.96c-.61-1.5-1.11-3.62-.04-5.21,.89-1.34,2.74-2.08,5.49-2.22h2.03c2.79,.15,4.66,.89,5.54,2.23,1.05,1.59,.52,3.7-.11,5.2Z" /><g>
			<path fill="#3a3b40" d="M42.06,50.33c-.13,1.85,.5,5.39,1.01,7.45,.36,.21,.48,.18,.84,.42,.1,.09,.06,1.82,.14,1.91h.72c-.17-1.2,.22-5.93,1.18-13.15,.88-6.64,4.38-7.08,4.38-7.08,15.47,4.13,27.41,.16,27.41,.16,3.37,2.7,2.93,4.4,3.73,9.78,.88,4.45,1.12,8.4,1.56,10.53l.9-.05c.09-.2,.06-2.07,.18-2.1,.65-.27,.54-.25,.84-.38,0,0,1.15-4.76-.14-8.81,1.14-4.79,.52-8.13,.52-8.13,1.65-4.95-4.84-11.64-4.84-11.64-1.84-4.93-7.04-4.13-7.04-4.13-.15-1.43-2.91-2.54-3.68-3.25-.77-.71-4.59,1.98-4.59,1.98-4.44-3.81-8.42-.95-8.42-.95-4.9-.48-6.43,4.45-6.43,4.45-3.68,.48-3.37,3.34-3.37,3.34-1.84,.95-2.14,4.45-2.14,4.45-4.13,2.07-2.96,4.77-2.96,4.77-1.89,3.02,.21,10.45,.21,10.45Z" />
			<path fill="#4c4d51" d="M57.59,23.84s-2.3,11.51,5.76,17.19c0,0-5.68-4.75-5.76-17.19Z" />
			<path fill="#4c4d51" d="M59.53,41.04s-10.43-.94-11.73-9.93c0,0,2.3,7.27,11.73,9.93Z" />
			<path fill="#4c4d51" d="M53.67,25.93s-1.12,7.55,5.14,12.16c0,0-8.56-4.46-5.14-12.16Z" />
		</g><path fill="#202123" d="M78.96,72.2c-.72,.93-5.53,2.64-5.29,1.8-.12-2.27-.44-2.99-1.8-3.11-.97,.01-2.36-.16-3.53-.51-1.23-.08-2.26-.24-2.51-.28-.18,.22-.41,.34-.64,.21-.78,.42-1.62,.43-2.39,0-.24,.14-.47,.02-.64-.21-.25,.05-1.28,.22-2.51,.28-1.17,.37-2.56,.55-3.53,.51-1.35,.15-1.65,.93-1.8,3.11,.27,.92-4.56-.87-5.29-1.8-.81-1.04-1.73-2.8-2.46-4.3s-1.25-2.74-1.25-2.74c0,2.52,.49,5.2,1.38,7.8s3.35,7.63,4.86,7.33c.08,2.05,2.1,3.93,4.91,5.44,3.84,3.02,5.77,2.98,7.52,2.13,1.71,.55,3.54,.94,7.55-1.8,4.17-3.39,3.61-3.94,3.97-4.9,1.23,.41,5.01-4.51,5.92-7.21s1.41-5.67,1.41-8.76c0,0-2.27,4.92-3.89,7Zm-6.67,4.01c-.06,.79-.52,1.55-1.29,2.11-.77,.56-1.38,.95-1.72,1.06-1.29,.42-2.43,.08-4.63-.17-.12-.13-.21-.27-.23-.44-.12-1.08,.12-1.01,.79-1.1,.67-.09,2.33-1.81-1.22-1.81s-1.9,1.72-1.22,1.81c.67,.09,.91,.02,.79,1.1-.02,.17-.11,.31-.23,.44-2.2,.24-3.34,.59-4.63,.17-.33-.11-.95-.5-1.72-1.06-.77-.56-1.22-1.31-1.29-2.11-.19-2.34-.13-3.31,1.37-3.52,2.2-.31,4.22-.48,6.17-.09,.5,.1,1.02,.1,1.52,0,1.95-.39,3.97-.22,6.17,.09,1.49,.21,1.56,1.18,1.37,3.52Z" /></g></svg>